<?xml version="1.0" encoding="UTF-8"?>
<svg id="Layer_1" data-name="Layer 1" xmlns="http://www.w3.org/2000/svg" viewBox="0 0 21.16 4.16">
  <path d="M0,.84C0,.42.34.09.75.09h3.39v.38c0,.31-.25.56-.56.56H0v-.19Z" style="fill: #0d1d46;"/>
  <path d="M0,2.28c0-.28.22-.5.5-.5h2.88v.44c0,.28-.22.5-.5.5H0v-.44Z" style="fill: #0d1d46;"/>
  <path d="M0,3.6c0-.21.17-.38.38-.38h1.88v.56c0,.21-.17.38-.38.38H0v-.56Z" style="fill: #0d1d46;"/>
  <path d="M3.35,3.22h0c.26,0,.47.21.47.47h0c0,.26-.21.47-.47.47h0c-.26,0-.47-.21-.47-.47h0c0-.26.21-.47.47-.47Z" style="fill: #1eb7ab;"/>
  <path d="M1,1.03c-.28,0-.25.28-.25.38h-.75v-.57l.04-.12,3.5-.03.04.34s-2.58,0-2.58,0Z" style="fill: #0d1d46;"/>
  <g>
    <path d="M8.08,2.58h-2.1c.07.39.4.64.87.64.3,0,.54-.1.73-.29l.34.39c-.24.29-.62.44-1.08.44-.9,0-1.48-.58-1.48-1.37s.59-1.37,1.38-1.37,1.35.55,1.35,1.38c0,.05,0,.12,0,.19ZM5.98,2.16h1.52c-.05-.39-.35-.65-.76-.65s-.7.26-.76.65Z" style="fill: #0d1d46;"/>
    <path d="M8.38,3.45l.24-.47c.23.15.6.26.93.26.4,0,.56-.11.56-.29,0-.51-1.65-.03-1.65-1.1,0-.51.46-.84,1.18-.84.36,0,.76.08,1,.23l-.24.48c-.25-.15-.51-.2-.77-.2-.38,0-.56.12-.56.3,0,.54,1.65.06,1.65,1.11,0,.5-.46.83-1.21.83-.45,0-.89-.13-1.13-.3Z" style="fill: #0d1d46;"/>
    <path d="M11.04,2.38c0-.8.6-1.37,1.45-1.37.52,0,.94.22,1.14.62l-.48.28c-.16-.26-.4-.37-.67-.37-.46,0-.81.32-.81.84s.35.84.81.84c.26,0,.5-.12.67-.37l.48.28c-.21.4-.62.63-1.14.63-.85,0-1.45-.57-1.45-1.37Z" style="fill: #0d1d46;"/>
    <path d="M16.4,2.15v1.57h-.59v-.33c-.15.23-.44.36-.84.36-.61,0-1-.34-1-.8s.3-.8,1.11-.8h.69v-.04c0-.37-.22-.58-.67-.58-.3,0-.61.1-.81.27l-.25-.46c.29-.22.7-.33,1.13-.33.77,0,1.22.37,1.22,1.14ZM15.78,2.88v-.31h-.65c-.42,0-.54.16-.54.35,0,.23.19.37.51.37s.57-.14.68-.42Z" style="fill: #0d1d46;"/>
    <path d="M17.2,0h.63v3.71h-.63V0Z" style="fill: #0d1d46;"/>
    <path d="M21.15,2.58h-2.1c.08.39.4.64.87.64.3,0,.54-.1.73-.29l.34.39c-.24.29-.62.44-1.08.44-.9,0-1.48-.58-1.48-1.37s.58-1.37,1.38-1.37,1.35.55,1.35,1.38c0,.05,0,.12,0,.19ZM19.05,2.16h1.52c-.05-.39-.35-.65-.76-.65s-.7.26-.76.65Z" style="fill: #0d1d46;"/>
  </g>
</svg>